<?xml version="1.0" encoding="UTF-8"?>
<svg id="Layer_1" xmlns="http://www.w3.org/2000/svg" version="1.1" viewBox="0 0 176.69 43.08">
  <!-- Generator: Adobe Illustrator 29.5.1, SVG Export Plug-In . SVG Version: 2.1.0 Build 141)  -->
  <defs>
    <style>
      .st0 {
        fill: #262d29;
      }

      .st1 {
        fill: #a0d900;
      }
    </style>
  </defs>
  <path class="st1" d="M21.6,7.42v12.34c0,.29-.29,1.14-.42,1.44-.27.62-.71,1.15-1.12,1.67l1.06-.76c.47-.29,1.61-.78,2.14-.78h12.35v10.24c-.2,3.64-2.59,6.33-6.27,6.67-6.04-.3-12.47.39-18.47,0-3.04-.2-5.66-2.63-6.1-5.64.06-5.83-.39-11.98-.09-17.79.14-2.77,1.4-5.22,3.9-6.54.57-.3,2.02-.86,2.62-.86h10.41-.01ZM18.68,10.33h-6.92c-1.69,0-4.09,2.03-4.09,3.76v7.24h9.27c.69,0,1.74-1.3,1.74-1.98,0,0,0-9.02,0-9.02ZM32.61,24.25h-8.79c-.95,0-2.23,1-2.23,1.98v8.98l.12.12h7.29c1.23,0,2.59-.88,3.16-1.94.1-.19.44-1.01.44-1.17v-7.97h.01ZM16.94,24.33H7.67v7.97c0,.16.43,1.12.55,1.31.53.86,1.87,1.72,2.89,1.72h7.45l.12-.12v-8.74c0-.48-.3-1.17-.65-1.51-.19-.19-.84-.59-1.09-.63Z"/>
  <path class="st1" d="M38.52,4.59v8.05c0,2.76-3.27,6.03-6.03,6.03h-8.06v-8.05c0-2.61,3.14-6.03,5.79-6.03h8.3ZM35.61,7.5h-4.82c-1.49,0-3.1,1.53-3.34,2.97l-.1.71v4.45l.12.12h4.45c1.64,0,3.26-1.39,3.58-2.97l.1-.71v-4.57h.01Z"/>
  <path class="st0" d="M52.12,30.51c-1.17,0-2.16-.21-2.95-.62s-1.38-.96-1.76-1.65c-.39-.68-.58-1.43-.58-2.24,0-.98.25-1.81.77-2.5.51-.68,1.23-1.2,2.17-1.56.93-.36,2.04-.53,3.31-.53h3.84c0-.9-.14-1.66-.42-2.27-.28-.61-.68-1.06-1.21-1.37-.53-.31-1.19-.46-1.98-.46-.92,0-1.72.23-2.4.69-.67.46-1.09,1.15-1.24,2.05h-2.48c.12-1.04.47-1.91,1.05-2.61.59-.7,1.33-1.24,2.24-1.62.9-.38,1.85-.56,2.83-.56,1.35,0,2.47.25,3.37.74s1.56,1.17,2.01,2.05c.44.88.66,1.91.66,3.11v9.01h-2.17l-.14-2.57c-.19.4-.44.78-.74,1.14-.3.36-.65.66-1.04.92-.39.26-.85.47-1.37.62s-1.11.23-1.76.23h-.01ZM52.49,28.45c.67,0,1.29-.14,1.83-.42.55-.28,1.02-.66,1.4-1.16.38-.49.68-1.03.88-1.63s.3-1.22.3-1.88v-.09h-3.64c-.94,0-1.7.11-2.28.33-.58.22-.99.53-1.24.92s-.38.84-.38,1.34.12.97.36,1.36.6.68,1.07.9c.47.21,1.03.32,1.69.32h0Z"/>
  <path class="st0" d="M63.09,36.51V15.6h2.2l.2,2.37c.31-.46.7-.9,1.18-1.31.48-.41,1.06-.75,1.73-1.01.67-.26,1.45-.39,2.34-.39,1.41,0,2.63.34,3.68,1.01,1.05.67,1.87,1.58,2.46,2.73s.88,2.45.88,3.91-.29,2.77-.88,3.91c-.59,1.15-1.41,2.05-2.47,2.7-1.06.65-2.29.98-3.7.98-1.17,0-2.21-.24-3.12-.72s-1.6-1.16-2.08-2.02v8.75h-2.43.01ZM70.43,28.4c.94,0,1.79-.23,2.53-.69s1.32-1.1,1.73-1.92.62-1.79.62-2.9-.21-2.06-.62-2.89-.99-1.47-1.73-1.94c-.74-.46-1.58-.69-2.53-.69s-1.81.23-2.54.69-1.3,1.11-1.7,1.94c-.4.83-.61,1.79-.61,2.89s.2,2.08.61,2.9c.4.82.97,1.46,1.7,1.92.73.46,1.58.69,2.54.69Z"/>
  <path class="st0" d="M81.2,36.51V15.6h2.2l.2,2.37c.31-.46.7-.9,1.18-1.31.48-.41,1.06-.75,1.73-1.01.67-.26,1.45-.39,2.34-.39,1.41,0,2.63.34,3.68,1.01,1.05.67,1.87,1.58,2.46,2.73s.88,2.45.88,3.91-.29,2.77-.88,3.91c-.59,1.15-1.41,2.05-2.47,2.7-1.06.65-2.29.98-3.7.98-1.17,0-2.21-.24-3.12-.72s-1.6-1.16-2.08-2.02v8.75h-2.43.01ZM88.54,28.4c.94,0,1.79-.23,2.53-.69s1.32-1.1,1.73-1.92.62-1.79.62-2.9-.21-2.06-.62-2.89-.99-1.47-1.73-1.94c-.74-.46-1.58-.69-2.53-.69s-1.81.23-2.54.69-1.3,1.11-1.7,1.94c-.4.83-.61,1.79-.61,2.89s.2,2.08.61,2.9c.4.82.97,1.46,1.7,1.92.73.46,1.58.69,2.54.69Z"/>
  <path class="st0" d="M99.31,30.16V9.36h2.43v20.8s-2.43,0-2.43,0Z"/>
  <path class="st0" d="M112.14,30.51c-1.35,0-2.55-.32-3.61-.95-1.06-.64-1.89-1.53-2.48-2.67-.6-1.15-.9-2.48-.9-4s.29-2.88.88-4.01c.59-1.14,1.42-2.02,2.48-2.66,1.07-.64,2.3-.95,3.68-.95s2.64.32,3.64.95c1,.64,1.77,1.47,2.3,2.5s.79,2.16.79,3.39v.61c0,.21,0,.45-.03.72h-11.93v-1.88h9.56c-.06-1.33-.5-2.37-1.31-3.12-.82-.75-1.84-1.13-3.08-1.13-.81,0-1.57.19-2.28.56-.71.38-1.28.92-1.7,1.65-.42.72-.64,1.62-.64,2.7v.81c0,1.19.22,2.2.65,3,.43.81,1,1.42,1.7,1.82s1.46.61,2.27.61c1.02,0,1.86-.23,2.53-.68.66-.45,1.15-1.07,1.46-1.86h2.4c-.25.89-.66,1.67-1.24,2.35s-1.3,1.23-2.15,1.63c-.86.4-1.85.61-2.99.61h0Z"/>
  <path class="st0" d="M127.39,30.16c-.87,0-1.62-.13-2.25-.4-.64-.27-1.12-.73-1.46-1.37-.34-.64-.51-1.52-.51-2.61v-8.12h-2.54v-2.05h2.54l.32-3.52h2.11v3.52h4.22v2.05h-4.22v8.12c0,.91.18,1.52.55,1.83.37.32,1.01.48,1.94.48h1.56v2.08h-2.26Z"/>
  <path class="st0" d="M132.99,30.16v-14.56h2.2l.17,2.77c.33-.65.75-1.21,1.26-1.68.51-.46,1.13-.82,1.85-1.07s1.55-.38,2.47-.38v2.54h-.9c-.62,0-1.2.08-1.76.25-.56.16-1.05.43-1.49.79-.43.37-.77.86-1.01,1.49-.24.63-.36,1.4-.36,2.33v7.51h-2.43Z"/>
  <path class="st0" d="M149.52,30.51c-1.35,0-2.55-.32-3.61-.95-1.06-.64-1.89-1.53-2.48-2.67-.6-1.15-.9-2.48-.9-4s.29-2.88.88-4.01c.59-1.14,1.42-2.02,2.48-2.66,1.07-.64,2.3-.95,3.68-.95s2.64.32,3.64.95c1,.64,1.77,1.47,2.3,2.5s.79,2.16.79,3.39v.61c0,.21,0,.45-.03.72h-11.93v-1.88h9.56c-.06-1.33-.5-2.37-1.31-3.12-.82-.75-1.84-1.13-3.08-1.13-.81,0-1.57.19-2.28.56-.71.38-1.28.92-1.7,1.65-.42.72-.64,1.62-.64,2.7v.81c0,1.19.22,2.2.65,3,.43.81,1,1.42,1.7,1.82s1.46.61,2.27.61c1.02,0,1.86-.23,2.53-.68.66-.45,1.15-1.07,1.46-1.86h2.4c-.25.89-.66,1.67-1.24,2.35s-1.3,1.23-2.15,1.63c-.86.4-1.85.61-2.99.61Z"/>
  <path class="st0" d="M165.92,30.51c-1.35,0-2.55-.32-3.61-.95-1.06-.64-1.89-1.53-2.48-2.67-.6-1.15-.9-2.48-.9-4s.29-2.88.88-4.01c.59-1.14,1.42-2.02,2.48-2.66,1.07-.64,2.3-.95,3.68-.95s2.64.32,3.64.95c1,.64,1.77,1.47,2.3,2.5s.79,2.16.79,3.39v.61c0,.21,0,.45-.03.72h-11.93v-1.88h9.56c-.06-1.33-.5-2.37-1.31-3.12-.82-.75-1.84-1.13-3.08-1.13-.81,0-1.57.19-2.28.56-.71.38-1.28.92-1.7,1.65-.42.72-.64,1.62-.64,2.7v.81c0,1.19.22,2.2.65,3,.43.81,1,1.42,1.7,1.82s1.46.61,2.27.61c1.02,0,1.86-.23,2.53-.68.66-.45,1.15-1.07,1.46-1.86h2.4c-.25.89-.66,1.67-1.24,2.35s-1.3,1.23-2.15,1.63c-.86.4-1.85.61-2.99.61Z"/>
</svg>