<?xml version="1.0" encoding="UTF-8"?>
<svg id="Layer_1" xmlns="http://www.w3.org/2000/svg" version="1.1" viewBox="0 0 160.74 68.24">
  <!-- Generator: Adobe Illustrator 29.5.1, SVG Export Plug-In . SVG Version: 2.1.0 Build 141)  -->
  <defs>
    <style>
      .st0 {
        fill: #fff;
      }
    </style>
  </defs>
  <path d="M145.71,55.43l-8.02-11.53c-.95-1.36-2.97-1.35-3.9.02l-7.85,11.49c-.44.65-1.17,1.03-1.96,1.03h-5.85c-1.94,0-3.06-2.2-1.92-3.77l12.64-17.37c.6-.83.61-1.94,0-2.77l-11.88-16.61c-1.12-1.57,0-3.75,1.93-3.75h5.8c.77,0,1.49.37,1.93,1l7.52,10.61c.95,1.34,2.94,1.33,3.88-.02l7.36-10.57c.44-.64,1.17-1.02,1.95-1.02h5.19c1.93,0,3.05,2.19,1.92,3.76l-11.72,16.23c-.6.83-.6,1.95,0,2.77l12.8,17.75c1.13,1.57,0,3.76-1.92,3.76h-5.96c-.78,0-1.5-.38-1.95-1.02h0Z"/>
  <rect x="5.27" y="5.5" width="90.73" height="57.62" rx="8.53" ry="8.53"/>
  <path class="st0" d="M34.65,41.66h-11.95l-2.28,5.52h-6.1l11.47-25.74h5.88l11.51,25.74h-6.25s-2.28-5.52-2.28-5.52ZM32.78,37.14l-4.08-9.86-4.08,9.86h8.16Z"/>
  <rect class="st0" x="52.48" y="15.19" width="37.13" height="38.23" rx="6.8" ry="6.8"/>
  <path d="M82.9,27.09c-.26-.64-.88-1.05-1.56-1.05h-8.71v-3.1c0-.93-.76-1.69-1.69-1.69s-1.69.76-1.69,1.69v3.1h-8.84c-.93,0-1.69.76-1.69,1.69s.76,1.69,1.69,1.69h16.76l-6.81,6.6-5.12-4.03c-.73-.58-1.79-.45-2.37.28-.58.73-.45,1.79.28,2.37l4.76,3.74-6.27,6.08c-.67.65-.69,1.72-.04,2.39.33.34.77.51,1.21.51s.85-.16,1.17-.48l6.6-6.4,8.28,6.51c.31.24.68.36,1.04.36.5,0,.99-.22,1.33-.64.58-.73.45-1.79-.28-2.37l-7.92-6.23,9.47-9.18c.49-.48.65-1.21.39-1.85h0Z"/>
</svg>