<?xml version="1.0" encoding="UTF-8"?>
<svg id="Layer_1" data-name="Layer 1" xmlns="http://www.w3.org/2000/svg" viewBox="0 0 200 200">
  <path d="M102.06,149.63c.1-.42.1-1.05-.45-1.69-.14-.14-.7-.54-.96-.67h-4.7v-20.54h4.23c.74,0,1.78-1.02,1.89-1.86.22-1.65.2-6.38.02-8.11-.04-.41-.17-.77-.35-1.03-4.96-2.81-10.21-5.39-15.28-7.88-3.3-1.62-6.7-3.29-10.01-5.01h-2.03l-25.1,12.71c-.33.43-.49.78-.54,1.22-.19,1.65-.21,6.44.02,8.1.11.83,1.16,1.86,1.89,1.86h4.23v20.54h-4.7c-.27.13-.83.52-.97.67-.42.49-.58,1.03-.46,1.6.15.68.69,1.33,1.43,1.73h50.45c.7-.35,1.23-.96,1.39-1.65ZM52.61,122.53l.2-1.24c.02-.15,0-.47-.02-.76-.06-.87-.14-2.07.74-2.75l.18-.11,21.72-10.69,21.9,10.81c.88.68.8,1.88.74,2.75-.02.28-.04.61-.02.76l.2,1.24h-45.66ZM67.19,147.27h-8.27v-20.54h8.27v20.54ZM79.67,147.27h-8.47v-20.54h8.47v20.54ZM91.94,147.27h-8.27v-20.54h8.27v20.54Z"/>
  <path d="M151.37,95.87v-.99c-.35-.77-1.22-1.6-1.7-1.6h-4.44v-20.54h4.79c.31-.13.97-.86,1.35-1.47v-8.67c-.35-.69-.64-1.11-1.14-1.4l-25.35-12.49-.45.02-25.18,12.46c-.42.29-1.09.85-1.18,1.59-.19,1.56-.21,6.7.02,8.3.04.3.28.81.47,1.02.18.13.75.47,1.04.63h4.61v20.54h-4.44c-.4.01-1.5.93-1.63,1.45-.16.6-.07,1.23.25,1.72.29.44.73.73,1.26.84h50.16c.48-.07,1.02-.32,1.56-1.42ZM102.08,68.74v-4.59l22.64-11.14,22.64,11.14v4.59h-45.28ZM116.48,93.28h-8.27v-20.54h8.27v20.54ZM128.96,93.28h-8.47v-20.54h8.47v20.54ZM141.23,93.28h-8.27v-20.54h8.27v20.54Z"/>
  <path d="M81.05,65.1c1.43.06,2.79.12,4.22-.12.96-.16,1.44-1.12,1.41-1.98-.01-.43-.21-1.84-2.15-2.03-6.74-.68-15.68.24-20.02,8.43-.7,1.32-1.81,4.3-1.81,5.33v5.33l-1.45-.56c-.92-.36-1.59-1.09-2.17-1.74-.54-.6-1.05-1.17-1.6-1.25-.15-.02-.29-.03-.44-.03-.82,0-1.52.35-1.88.95-.41.68-.31,1.51.27,2.29,1.07,1.44,6.49,6.8,7.87,7.87.88.68,1.83.7,2.73.07,1.17-.82,6.81-6.53,7.74-7.75.64-.84.77-1.79.33-2.52-.43-.72-1.32-1.05-2.38-.89-.54.09-1.2.8-1.79,1.43-.5.54-1.01,1.09-1.6,1.47l-1.63,1.04v-5.11c0-3.46,3.73-7.6,6.3-8.93,2.96-1.53,5.55-1.42,8.05-1.32Z"/>
  <path d="M136.86,112.38c-.89-.68-1.83-.7-2.73-.07-1.17.82-6.81,6.53-7.74,7.75-.82,1.08-.6,2.15-.17,2.73.55.74,1.47.96,2.47.58.44-.16,1.01-.78,1.51-1.32.51-.55,1.03-1.12,1.63-1.49l1.63-1.03v5.1c0,3.41-3.79,7.63-6.3,8.93-2.96,1.53-5.55,1.42-8.05,1.32-.63-.03-1.25-.05-1.87-.05-.78,0-1.55.04-2.36.18-.97.16-1.45,1.12-1.42,1.99.01.43.21,1.83,2.16,2.02,6.26.63,14.7-.12,19.31-7.23,1-1.54,2.53-5.08,2.53-6.54v-5.28l1.42.5c.94.33,1.6,1.08,2.18,1.73.39.44.75.85,1.1,1.03,1.13.61,2.1.17,2.58-.39.5-.57.75-1.55-.01-2.59-1.07-1.44-6.49-6.8-7.87-7.87Z"/>
</svg>