<?xml version="1.0" encoding="UTF-8"?>
<svg id="Layer_1" data-name="Layer 1" xmlns="http://www.w3.org/2000/svg" viewBox="0 0 200 200">
  <defs>
    <style>
      .cls-1 {
        fill: #191919;
      }
    </style>
  </defs>
  <path class="cls-1" d="M147.35,61.03H52.65c-6.78,0-12.3,5.52-12.3,12.3v53.35c0,6.78,5.52,12.3,12.3,12.3h94.7c6.78,0,12.3-5.52,12.3-12.3v-53.35c0-6.78-5.52-12.3-12.3-12.3ZM155.64,101.28v25.39c0,4.57-3.72,8.29-8.29,8.29H52.65c-4.57,0-8.29-3.72-8.29-8.29v-31.48h111.28v6.08ZM155.64,77.03H44.36v-3.7c0-4.57,3.72-8.29,8.29-8.29h94.7c4.57,0,8.29,3.72,8.29,8.29v3.7Z"/>
  <rect class="cls-1" x="54.21" y="107.46" width="16.56" height="12.06" rx="2.38" ry="2.38"/>
  <path class="cls-1" d="M79.09,111.47h26.65c1.11,0,2.01-.9,2.01-2.01s-.9-2.01-2.01-2.01h-26.65c-1.11,0-2.01.9-2.01,2.01s.9,2.01,2.01,2.01Z"/>
  <path class="cls-1" d="M79.09,119.5h14.13c1.11,0,2.01-.9,2.01-2.01s-.9-2.01-2.01-2.01h-14.13c-1.11,0-2.01.9-2.01,2.01s.9,2.01,2.01,2.01Z"/>
</svg>