<?xml version="1.0" encoding="UTF-8"?>
<svg id="Layer_1" data-name="Layer 1" xmlns="http://www.w3.org/2000/svg" viewBox="0 0 200 200">
  <path d="M160.37,91.01c-.38-.96-1-2-1.95-2.88v-16.55c-.66-6.45-5.89-11.68-12.34-11.68H50.38c-6.45,0-11.68,5.23-11.68,11.68v56.84c0,6.45,5.23,11.68,11.68,11.68h95.71c6.45,0,11.68-5.23,12.34-11.68v-16.55c.95-.88,1.58-1.91,1.95-2.88.93-2.4.93-5.37.93-8.5v-.97c0-3.14,0-6.1-.93-8.5ZM152,128.42c0,3.26-2.65,5.91-5.91,5.91H50.38c-3.26,0-5.91-2.65-5.91-5.91v-56.84c0-3.26,2.65-5.91,5.91-5.91h95.71c3.26,0,5.91,2.65,5.91,5.91v14.53h-27.27c-7.66,0-13.89,6.23-13.89,13.89s6.23,13.89,13.89,13.89h27.27v14.53ZM155.54,100.49c0,2.58,0,5.02-.54,6.41-.22.58-.48,1.23-2.49,1.23h-27.78c-4.48,0-8.13-3.65-8.13-8.13s3.65-8.13,8.13-8.13h27.78c2.01,0,2.27.65,2.49,1.23.54,1.39.54,3.83.54,6.41v.98Z"/>
  <path d="M125.47,96.28c-2.05,0-3.72,1.67-3.72,3.72s1.67,3.72,3.72,3.72,3.72-1.67,3.72-3.72-1.67-3.72-3.72-3.72Z"/>
  <path d="M98.67,87.2c-11.79-8.14-27.49-8.43-39.57-.69-1.15.73-4.59,3.12-5.13,4.21-.12.25-.11.52-.27.74v.77c.28.7.49,1.27,1.16,1.68,2.01,1.21,3.29-.64,4.72-1.72,11.03-8.27,25.96-8.57,37.12-.33.88.65,2.34,2.16,3.32,2.36,1.97.41,3.56-1.5,2.8-3.37-.41-1.01-3.17-2.97-4.15-3.65Z"/>
  <path d="M78.52,110.43c-2.58-.06-6.64,2.1-4.48,5.06.45.62,2.63,3.06,3.21,3.34.25.12.52.11.74.27h.77c.21-.16.49-.15.74-.27.58-.29,2.75-2.72,3.21-3.34,2.07-2.85-1.69-5-4.18-5.06Z"/>
  <path d="M92.43,94.89c-4.8-3.09-10.29-4.42-16.01-4.07-4.74.29-9.56,2.16-13.36,4.94-.78.57-2.31,1.69-2.62,2.59-.44,1.27.19,2.72,1.48,3.16,1.8.61,2.58-.7,3.84-1.6,7.82-5.62,17.42-5.62,25.23,0,1.21.87,2.04,2.19,3.77,1.63,1.32-.43,2-1.88,1.55-3.18-.38-1.08-2.86-2.8-3.87-3.45Z"/>
  <path d="M88.34,104.08c-3.07-2.48-7.3-3.74-11.24-3.44-3.09.23-7.09,1.79-9.33,3.97-2.33,2.26.35,5.61,2.98,3.94.57-.36,1.12-.94,1.75-1.33,3.56-2.22,8.18-2.2,11.74,0,1.43.88,2.39,2.45,4.31,1.5,1.31-.65,1.68-2.41.88-3.61-.23-.34-.77-.76-1.1-1.02Z"/>
</svg>