<?xml version="1.0" encoding="UTF-8"?>
<svg id="Layer_1" xmlns="http://www.w3.org/2000/svg" version="1.1" viewBox="0 0 145.7 33.6">
  <!-- Generator: Adobe Illustrator 29.5.1, SVG Export Plug-In . SVG Version: 2.1.0 Build 141)  -->
  <defs>
    <style>
      .st0 {
        fill: #025ca7;
      }

      .st0, .st1 {
        fill-rule: evenodd;
      }

      .st1 {
        fill: #ea2628;
      }
    </style>
  </defs>
  <path class="st0" d="M20.26,8.39h-10.84v5.83h9.98c.74,0,1.28.16,1.64.49.37.33.55.77.55,1.3s-.18.98-.53,1.32c-.36.34-.91.51-1.65.51h-9.98v6.76h11.21c.75,0,1.32.17,1.71.53.38.35.58.82.58,1.4s-.19,1.02-.58,1.37c-.38.35-.95.53-1.71.53H7.57c-1.05,0-1.8-.23-2.26-.7-.46-.46-.69-1.21-.69-2.25V7.63c0-.69.1-1.25.31-1.69.2-.43.53-.76.96-.96.44-.2,1-.3,1.68-.3h12.7c.77,0,1.34.17,1.71.51.37.34.56.79.56,1.34s-.19,1.01-.56,1.35c-.37.34-.94.51-1.71.51h-.01Z"/>
  <path class="st0" d="M41.46,23.35c0,.55-.17,1.14-.49,1.76-.33.63-.83,1.22-1.51,1.79s-1.52,1.02-2.55,1.37c-1.02.35-2.18.52-3.46.52-2.73,0-4.86-.8-6.4-2.39-1.53-1.6-2.3-3.73-2.3-6.41,0-1.81.35-3.42,1.05-4.81s1.72-2.47,3.05-3.23c1.33-.76,2.92-1.14,4.76-1.14,1.14,0,2.19.17,3.15.5.95.33,1.76.77,2.43,1.3.66.53,1.17,1.09,1.52,1.69.35.6.53,1.16.53,1.67s-.2.98-.59,1.34c-.39.37-.87.55-1.43.55-.37,0-.67-.09-.92-.28-.24-.19-.51-.49-.82-.92-.54-.82-1.1-1.43-1.69-1.85-.58-.41-1.33-.61-2.24-.61-1.31,0-2.36.51-3.16,1.53s-1.2,2.42-1.2,4.19c0,.83.1,1.6.31,2.29.21.7.5,1.29.89,1.78s.86.86,1.41,1.12,1.16.38,1.82.38c.88,0,1.64-.2,2.28-.61.63-.41,1.19-1.04,1.68-1.88.27-.5.56-.88.87-1.16.31-.28.7-.42,1.15-.42.54,0,.99.21,1.34.62.36.41.53.85.53,1.31h0Z"/>
  <path class="st0" d="M56.6,19.84c0-1.8-.4-3.21-1.19-4.21s-1.86-1.5-3.2-1.5c-.86,0-1.63.22-2.28.67-.66.45-1.16,1.11-1.53,1.99-.35.87-.53,1.89-.53,3.06s.18,2.17.52,3.03c.35.87.86,1.53,1.51,1.98.65.46,1.42.69,2.31.69,1.34,0,2.41-.51,3.2-1.52.79-1.01,1.19-2.41,1.19-4.19h0ZM61.03,19.84c0,1.32-.2,2.53-.61,3.64s-1.01,2.07-1.78,2.87c-.78.8-1.71,1.41-2.79,1.83-1.08.43-2.29.64-3.64.64s-2.54-.22-3.61-.65-2-1.05-2.78-1.85c-.78-.81-1.38-1.76-1.78-2.85-.4-1.1-.61-2.31-.61-3.63s.21-2.57.62-3.68,1-2.06,1.76-2.85c.77-.79,1.69-1.4,2.79-1.82,1.09-.43,2.3-.64,3.61-.64s2.55.22,3.64.65,2.03,1.05,2.8,1.85c.78.8,1.37,1.75,1.78,2.85.41,1.1.61,2.31.61,3.65h-.01Z"/>
  <path class="st1" d="M84.22,20.93c0,.75-.18,1.57-.56,2.45-.37.88-.96,1.75-1.76,2.59s-1.82,1.54-3.06,2.06c-1.24.53-2.69.79-4.34.79-1.26,0-2.4-.12-3.42-.36-1.03-.24-1.96-.61-2.79-1.11-.84-.5-1.61-1.16-2.31-1.99-.63-.75-1.16-1.58-1.6-2.5-.44-.93-.78-1.91-1-2.96-.22-1.05-.33-2.16-.33-3.34,0-1.91.28-3.62.83-5.13.55-1.51,1.35-2.81,2.39-3.88,1.04-1.08,2.25-1.89,3.64-2.45s2.88-.85,4.46-.85c1.92,0,3.63.39,5.13,1.16,1.5.77,2.65,1.71,3.45,2.84.81,1.13,1.2,2.19,1.2,3.2,0,.55-.2,1.04-.58,1.46-.39.42-.86.63-1.41.63-.61,0-1.08-.14-1.38-.44-.31-.29-.65-.79-1.03-1.51-.63-1.18-1.36-2.06-2.21-2.64s-1.89-.87-3.13-.87c-1.98,0-3.55.75-4.72,2.25-1.17,1.51-1.76,3.64-1.76,6.4,0,1.84.26,3.38.78,4.61s1.25,2.14,2.2,2.75,2.06.91,3.34.91c1.38,0,2.55-.35,3.5-1.03.96-.69,1.67-1.69,2.16-3.02.2-.63.46-1.14.76-1.53.3-.4.79-.59,1.46-.59.57,0,1.06.2,1.47.6s.61.9.61,1.49h.01Z"/>
  <path class="st1" d="M98.3,19.94c-.65.24-1.59.49-2.83.75-1.24.26-2.09.46-2.57.58-.48.13-.93.37-1.36.73s-.65.87-.65,1.52.26,1.24.77,1.71c.5.47,1.17.7,1.99.7.87,0,1.68-.2,2.42-.58.74-.38,1.29-.87,1.63-1.48.4-.67.6-1.77.6-3.3v-.63h0ZM98.59,26.33c-1.07.83-2.11,1.45-3.1,1.87-1,.42-2.12.63-3.36.63-1.13,0-2.13-.22-2.99-.67s-1.52-1.06-1.99-1.82c-.46-.77-.7-1.6-.7-2.5,0-1.21.38-2.24,1.15-3.09.77-.85,1.82-1.43,3.16-1.72.28-.06.97-.21,2.09-.44,1.11-.23,2.07-.44,2.86-.62s1.65-.42,2.58-.69c-.06-1.17-.29-2.02-.7-2.57-.42-.55-1.28-.82-2.58-.82-1.13,0-1.97.15-2.54.47s-1.06.78-1.46,1.41c-.41.63-.7,1.05-.86,1.24-.16.2-.53.3-1.08.3-.49,0-.93-.16-1.29-.48s-.54-.73-.54-1.22c0-.78.28-1.54.83-2.27.55-.73,1.41-1.34,2.58-1.81,1.16-.48,2.62-.71,4.36-.71,1.94,0,3.47.23,4.58.69,1.11.46,1.9,1.18,2.36,2.18.46.99.69,2.31.69,3.95v2.64c0,.72-.02,1.53-.03,2.41,0,.83.14,1.69.41,2.6.28.9.42,1.48.42,1.74,0,.45-.22.87-.64,1.24-.43.37-.91.56-1.45.56-.45,0-.9-.22-1.34-.64-.44-.43-.91-1.04-1.41-1.85h-.01Z"/>
  <path class="st1" d="M120.53,23.05c0,1.22-.3,2.26-.89,3.13-.59.87-1.47,1.53-2.63,1.98-1.16.45-2.57.67-4.24.67s-2.95-.24-4.08-.73c-1.13-.49-1.97-1.09-2.51-1.82s-.81-1.46-.81-2.2c0-.48.17-.9.52-1.25s.78-.52,1.31-.52c.47,0,.82.11,1.07.34.25.23.49.55.72.96.45.79.99,1.37,1.62,1.76.63.39,1.49.58,2.59.58.89,0,1.61-.2,2.18-.59.57-.39.85-.84.85-1.35,0-.78-.29-1.34-.88-1.7-.59-.35-1.56-.7-2.91-1.02-1.52-.38-2.76-.77-3.72-1.2-.95-.41-1.72-.96-2.29-1.64-.57-.68-.86-1.52-.86-2.51,0-.89.26-1.73.79-2.51.53-.79,1.31-1.42,2.34-1.89s2.28-.7,3.73-.7c1.15,0,2.17.12,3.09.36.91.24,1.67.56,2.28.95.61.4,1.08.84,1.39,1.33.32.49.48.96.48,1.43,0,.51-.17.92-.51,1.25s-.83.49-1.45.49c-.46,0-.84-.13-1.16-.39s-.68-.65-1.09-1.17c-.34-.43-.73-.78-1.18-1.04s-1.07-.39-1.85-.39-1.46.17-1.99.51c-.53.34-.79.76-.79,1.27,0,.46.19.84.58,1.14s.92.55,1.57.74c.66.2,1.57.43,2.72.72,1.37.33,2.49.73,3.36,1.2.87.46,1.53,1.01,1.98,1.64.44.63.67,1.35.67,2.16h0Z"/>
  <path class="st1" d="M127.77,6.96v6.56c.56-.65,1.11-1.16,1.64-1.54s1.13-.66,1.77-.85c.65-.19,1.35-.28,2.09-.28,1.12,0,2.12.24,2.99.71.87.48,1.55,1.17,2.05,2.08.31.53.52,1.12.63,1.77.11.65.17,1.41.17,2.26v8.47c0,.88-.21,1.55-.61,2.01-.41.46-.94.68-1.61.68-1.46,0-2.19-.89-2.19-2.68v-7.47c0-1.41-.21-2.5-.63-3.26s-1.22-1.14-2.4-1.14c-.79,0-1.5.22-2.13.67-.63.44-1.1,1.06-1.41,1.84-.24.66-.36,1.83-.36,3.52v5.85c0,.87-.2,1.54-.59,2s-.94.68-1.64.68c-1.45,0-2.19-.89-2.19-2.68V6.98c0-.9.19-1.57.57-2.02s.92-.67,1.61-.67,1.25.22,1.64.68c.39.45.59,1.12.59,2.01v-.02Z"/>
</svg>