<?xml version="1.0" encoding="UTF-8"?>
<svg id="Layer_1" data-name="Layer 1" xmlns="http://www.w3.org/2000/svg" viewBox="0 0 200 200">
  <defs>
    <style>
      .cls-1 {
        fill: none;
        stroke: #373a3f;
        stroke-miterlimit: 41.36;
        stroke-width: .98px;
      }

      .cls-2 {
        fill: #373a3f;
      }

      .cls-3 {
        fill: #fff;
      }

      .cls-4 {
        fill: #ffaa01;
      }

      .cls-5 {
        fill: #f2a71e;
      }
    </style>
  </defs>
  <g>
    <path class="cls-5" d="M58.97,81.55c8.98,6.64,3.77,20.64-7.32,20.11-4.42-.21-8.63-3.44-9.97-7.64-3.34-10.45,8.46-19,17.28-12.47Z"/>
    <path class="cls-3" d="M55.99,93.56l-6.44,6.27c-2.73-.67-5.12-2.88-6.23-5.44-2.4-5.55.71-11.87,6.51-13.41,4.79-1.27,9.73,1.24,11.59,5.78,0,.1-1.17,1.42-1.28,1.47-.15.06-.13-.05-.16-.12-.11-.22-.16-.52-.28-.77-2.54-5.47-9.6-6.66-13.55-1.96-2.98,3.54-2.2,8.93,1.54,11.59.35.25,1.21.88,1.59.67l5.16-5.13.14-.29h-6.42s-.14-.13-.14-.14v-1.66h9.8v8.13c-.51.46-1.17.76-1.81,1v-5.99Z"/>
  </g>
  <path class="cls-1" d="M24.5,104.63h150.99"/>
  <path class="cls-2" d="M72.25,98.42c-1.21,0-2.27-.28-3.19-.83-.92-.55-1.64-1.38-2.16-2.49-.52-1.11-.78-2.47-.78-4.08s.28-2.98.83-4.08c.55-1.11,1.32-1.94,2.31-2.49.98-.55,2.12-.83,3.41-.83,1.38,0,2.51.25,3.4.74.89.5,1.51,1.23,1.88,2.22l-1.1.65h-.25c-.37-.75-.88-1.28-1.52-1.61-.64-.32-1.44-.49-2.41-.49-3.16,0-4.73,1.96-4.73,5.88,0,2.04.4,3.53,1.19,4.47.79.94,1.91,1.41,3.34,1.41,1.31,0,2.29-.3,2.95-.9.65-.6.98-1.54.98-2.82v-1.27h-4.09v-1.36h5.74v7.67h-1.56v-1.93l-.21-.05c-.38.74-.91,1.29-1.59,1.65-.68.36-1.48.54-2.42.54Z"/>
  <path class="cls-2" d="M89.99,93.16h-7.46c.05,1.32.36,2.29.95,2.9.59.62,1.39.93,2.42.93.77,0,1.4-.14,1.87-.41.47-.28.84-.71,1.11-1.3h.21l1.04.62c-.31.79-.82,1.41-1.51,1.86-.69.45-1.6.67-2.72.67-1.05,0-1.95-.21-2.71-.62-.75-.41-1.34-1.04-1.74-1.88-.41-.84-.61-1.88-.61-3.13s.21-2.27.64-3.12c.43-.85,1.02-1.48,1.76-1.89.74-.42,1.6-.62,2.55-.62,1.39,0,2.48.39,3.26,1.18.78.78,1.17,1.95,1.18,3.49,0,.6-.01,1.01-.04,1.22l-.21.12ZM88.65,91.82c-.03-1.15-.28-1.99-.77-2.52-.49-.52-1.18-.79-2.09-.79-.95,0-1.7.26-2.24.79-.54.53-.87,1.37-.99,2.51h6.08Z"/>
  <path class="cls-2" d="M98.56,96.49l.51,1.15c-.26.26-.59.45-1.01.58-.42.13-.87.2-1.35.2-2.07,0-3.11-1.05-3.11-3.15v-6.6h-1.89v-1.32h1.89v-2.29l1.6-.27v2.56h3.49v1.32h-3.49v6.45c0,1.25.54,1.87,1.62,1.87.59,0,1.1-.16,1.53-.49h.21Z"/>
  <path class="cls-4" d="M102.64,98.22v-14.39h6.14c.89,0,1.64.14,2.25.42.61.28,1.08.68,1.39,1.19.32.52.47,1.12.47,1.83,0,.64-.15,1.2-.46,1.68-.31.49-.75.88-1.33,1.17v.21c.91.24,1.6.67,2.1,1.29.49.62.74,1.39.74,2.29,0,1.38-.42,2.44-1.25,3.19-.83.75-2.06,1.12-3.7,1.12h-6.36ZM108.19,89.56c1.33,0,1.99-.6,1.99-1.79,0-.61-.16-1.06-.49-1.36-.33-.3-.83-.45-1.5-.45h-2.71v3.6h2.71ZM108.72,95.96c1.57,0,2.35-.71,2.35-2.14s-.78-2.15-2.35-2.15h-3.23v4.28h3.23Z"/>
  <path class="cls-4" d="M119.82,98.42c-1.22,0-2.12-.33-2.7-1-.58-.67-.87-1.62-.87-2.87v-7.19h2.73v6.85c0,.66.14,1.15.43,1.45.29.31.73.46,1.32.46.75,0,1.34-.25,1.76-.74.42-.5.63-1.27.63-2.34v-5.68h2.73v10.86h-2.62v-1.59l-.21-.05c-.35.62-.77,1.09-1.27,1.39-.5.3-1.14.46-1.92.46Z"/>
  <path class="cls-4" d="M133.73,98.42c-1.05,0-1.98-.22-2.79-.65-.81-.44-1.44-1.08-1.89-1.92-.45-.85-.68-1.86-.68-3.05s.23-2.21.68-3.06c.45-.85,1.08-1.49,1.88-1.92.8-.44,1.72-.65,2.75-.65,2.29,0,3.76.83,4.4,2.49l-1.87,1.34h-.21c-.22-.51-.51-.89-.87-1.14-.36-.25-.84-.37-1.45-.37-.79,0-1.4.27-1.84.82-.44.54-.66,1.38-.66,2.51s.22,1.95.67,2.49c.45.55,1.07.82,1.88.82.59,0,1.09-.16,1.5-.48.41-.32.7-.78.88-1.37l.21-.02,1.94,1.06c-.28.92-.79,1.67-1.53,2.25-.74.58-1.74.87-3,.87Z"/>
  <path class="cls-4" d="M140.16,98.22v-15.22h2.73v8.44h.27l3.14-4.08h2.77v.23l-3.69,4.76,4.1,5.62v.25h-2.87l-3.44-4.58h-.27v4.58h-2.73Z"/>
  <path class="cls-4" d="M154.56,98.42c-.74,0-1.42-.09-2.04-.26-.62-.17-1.14-.41-1.58-.72-.44-.3-.76-.65-.97-1.05l1.52-1.63h.21c.36.49.79.85,1.28,1.09.49.24,1.03.36,1.6.36.53,0,.93-.1,1.2-.29.27-.19.4-.46.4-.82,0-.28-.1-.51-.29-.69-.19-.19-.51-.33-.94-.44l-1.44-.34c-1.08-.26-1.86-.65-2.36-1.18-.5-.53-.74-1.2-.74-2.01,0-.68.17-1.26.52-1.76.34-.5.83-.88,1.46-1.14.63-.26,1.36-.39,2.19-.39.98,0,1.79.14,2.43.42.64.28,1.14.66,1.51,1.13l-1.46,1.57h-.2c-.3-.34-.64-.59-1.02-.75-.38-.16-.8-.24-1.26-.24-1.08,0-1.61.33-1.61,1,0,.28.1.51.3.69.2.18.55.32,1.06.43l1.34.3c1.1.24,1.91.62,2.42,1.14.51.52.76,1.22.76,2.1,0,.69-.17,1.3-.51,1.82-.34.52-.83.93-1.48,1.22-.64.29-1.41.43-2.29.43Z"/>
  <path class="cls-2" d="M29.32,120.56h-2.1v-11.6h3l2.94,8.53h.17l2.92-8.53h2.93v11.6h-2.18v-7.67l-.2-.03-2.68,7.7h-1.91l-2.68-7.7-.2.03v7.67Z"/>
  <path class="cls-2" d="M43.04,110.76c-.4,0-.72-.12-.97-.36-.25-.24-.37-.55-.37-.93s.12-.68.37-.92c.25-.24.57-.36.97-.36.26,0,.5.06.71.17.21.11.37.26.48.46.11.19.17.41.17.66s-.06.47-.17.67c-.11.2-.27.35-.48.46-.21.11-.44.17-.71.17ZM41.95,120.56v-8.75h2.2v8.75h-2.2Z"/>
  <path class="cls-2" d="M50.5,120.73c-.85,0-1.6-.18-2.25-.53-.65-.35-1.16-.87-1.52-1.55-.36-.68-.55-1.5-.55-2.46s.18-1.79.55-2.47c.37-.68.87-1.2,1.52-1.55.65-.35,1.38-.53,2.21-.53,1.85,0,3.03.67,3.55,2.01l-1.51,1.08h-.17c-.18-.41-.41-.72-.7-.92-.29-.2-.68-.3-1.17-.3-.64,0-1.13.22-1.48.66-.35.44-.53,1.11-.53,2.02s.18,1.57.54,2.01c.36.44.87.66,1.52.66.48,0,.88-.13,1.21-.38.33-.26.57-.63.71-1.11l.17-.02,1.56.86c-.22.74-.63,1.35-1.23,1.81-.6.47-1.41.7-2.42.7Z"/>
  <path class="cls-2" d="M55.69,120.56v-8.75h2.13v1.3l.17.03c.21-.49.49-.84.83-1.07.34-.23.76-.34,1.25-.34s.88.08,1.14.25l-.37,1.9-.17.03c-.14-.06-.28-.1-.41-.13-.13-.03-.29-.04-.48-.04-.61,0-1.08.22-1.4.65-.32.43-.48,1.12-.48,2.08v4.1h-2.2Z"/>
  <path class="cls-2" d="M66.38,120.73c-.86,0-1.61-.18-2.26-.53-.65-.35-1.15-.87-1.51-1.55-.36-.68-.54-1.5-.54-2.46s.18-1.79.54-2.47c.36-.68.86-1.2,1.51-1.55.65-.35,1.4-.53,2.26-.53s1.61.18,2.26.53c.65.35,1.15.87,1.51,1.55.36.68.54,1.51.54,2.47s-.18,1.78-.54,2.46c-.36.68-.86,1.2-1.51,1.55-.65.35-1.4.53-2.26.53ZM66.38,118.87c1.36,0,2.04-.89,2.04-2.67,0-.93-.17-1.6-.52-2.04-.35-.43-.85-.65-1.52-.65-1.36,0-2.04.89-2.04,2.68s.68,2.67,2.04,2.67Z"/>
  <path class="cls-2" d="M73,120.56v-7.02h-1.24v-1.75h1.24c-.09-.37-.13-.72-.13-1.04,0-.56.13-1.03.38-1.42s.62-.69,1.1-.9c.48-.21,1.04-.31,1.7-.31.97,0,1.69.17,2.17.5l-.52,1.62-.17.03c-.33-.23-.75-.35-1.26-.35-.4,0-.69.1-.89.29-.2.19-.3.46-.3.79,0,.14,0,.27.03.39.02.12.05.25.1.4h2.5v1.75h-2.5v7.02h-2.2Z"/>
  <path class="cls-2" d="M80.14,110.76c-.4,0-.72-.12-.97-.36-.25-.24-.37-.55-.37-.93s.12-.68.37-.92c.25-.24.57-.36.97-.36.26,0,.5.06.71.17.21.11.37.26.48.46.11.19.17.41.17.66s-.06.47-.17.67c-.11.2-.27.35-.48.46-.21.11-.44.17-.71.17ZM79.04,120.56v-8.75h2.2v8.75h-2.2Z"/>
  <path class="cls-2" d="M83.76,120.56v-8.75h2.11v1.29l.17.04c.54-.99,1.43-1.49,2.65-1.49,1.01,0,1.75.28,2.23.83.47.55.71,1.35.71,2.4v5.69h-2.2v-5.42c0-.58-.12-1-.35-1.26-.23-.26-.61-.38-1.12-.38-.63,0-1.12.2-1.47.61-.35.41-.53,1.05-.53,1.92v4.53h-2.2Z"/>
  <path class="cls-2" d="M96.16,120.73c-.56,0-1.05-.1-1.46-.31-.41-.21-.73-.51-.95-.91-.22-.4-.33-.88-.33-1.44,0-.52.11-.95.33-1.31.22-.35.57-.64,1.03-.87.47-.22,1.07-.4,1.83-.52.52-.08.92-.18,1.19-.28.27-.1.46-.21.55-.34.1-.13.14-.29.14-.48,0-.28-.1-.49-.29-.64-.2-.15-.52-.22-.98-.22-.49,0-.95.11-1.39.33-.44.22-.82.5-1.14.86h-.16l-.92-1.39c.44-.49.99-.88,1.63-1.15.64-.28,1.34-.41,2.1-.41,1.16,0,2,.25,2.52.74.52.49.78,1.19.78,2.1v3.8c0,.39.17.59.52.59.13,0,.26-.02.39-.07l.11.03.16,1.53c-.12.08-.29.14-.51.19-.22.05-.45.08-.71.08-.52,0-.93-.1-1.23-.3-.29-.2-.5-.52-.63-.94l-.17-.02c-.43.91-1.23,1.36-2.4,1.36ZM96.86,119.09c.51,0,.91-.17,1.22-.51.3-.34.46-.82.46-1.43v-.89l-.15-.03c-.13.11-.31.19-.52.27-.21.07-.52.14-.92.21-.48.08-.82.22-1.03.41-.21.19-.31.47-.31.82,0,.38.11.66.33.86.22.2.53.29.93.29Z"/>
  <path class="cls-2" d="M103.24,120.56v-8.75h2.11v1.29l.17.04c.54-.99,1.43-1.49,2.65-1.49,1.01,0,1.75.28,2.23.83.47.55.71,1.35.71,2.4v5.69h-2.2v-5.42c0-.58-.12-1-.35-1.26-.23-.26-.61-.38-1.12-.38-.63,0-1.12.2-1.47.61-.35.41-.53,1.05-.53,1.92v4.53h-2.2Z"/>
  <path class="cls-2" d="M117.34,120.73c-.85,0-1.6-.18-2.25-.53-.65-.35-1.16-.87-1.52-1.55-.36-.68-.55-1.5-.55-2.46s.18-1.79.55-2.47c.37-.68.87-1.2,1.52-1.55.65-.35,1.38-.53,2.21-.53,1.85,0,3.03.67,3.55,2.01l-1.51,1.08h-.17c-.18-.41-.41-.72-.7-.92-.29-.2-.68-.3-1.17-.3-.64,0-1.13.22-1.48.66-.35.44-.53,1.11-.53,2.02s.18,1.57.54,2.01c.36.44.87.66,1.52.66.48,0,.88-.13,1.21-.38.33-.26.57-.63.71-1.11l.17-.02,1.56.86c-.22.74-.63,1.35-1.23,1.81-.6.47-1.41.7-2.42.7Z"/>
  <path class="cls-2" d="M129.91,116.68h-5.63c.06.76.28,1.32.65,1.66.37.35.88.52,1.52.52.5,0,.91-.09,1.22-.28.31-.19.56-.47.75-.85h.17l1.46.94c-.29.61-.72,1.11-1.29,1.49-.58.38-1.35.57-2.31.57-.9,0-1.69-.17-2.34-.52-.66-.34-1.17-.86-1.52-1.54-.36-.68-.54-1.51-.54-2.49s.19-1.83.56-2.52c.38-.68.88-1.19,1.52-1.53.64-.34,1.36-.5,2.16-.5,1.24,0,2.19.33,2.85.98.66.66.99,1.62.99,2.89,0,.46-.02.82-.05,1.07l-.17.1ZM128.02,115.26c-.02-.67-.18-1.15-.46-1.46-.29-.3-.71-.46-1.27-.46-1.11,0-1.76.64-1.96,1.91h3.69Z"/>
  <path class="cls-2" d="M136.11,120.56v-11.6h4.95c.71,0,1.32.11,1.81.34.49.23.87.55,1.12.96.25.42.38.91.38,1.47,0,.51-.12.97-.37,1.36-.25.39-.61.71-1.07.94v.17c.73.19,1.29.54,1.69,1.04.4.5.6,1.12.6,1.85,0,1.11-.33,1.97-1,2.57-.67.6-1.66.9-2.98.9h-5.13ZM140.59,113.59c1.07,0,1.6-.48,1.6-1.44,0-.49-.13-.86-.4-1.1-.26-.24-.67-.36-1.21-.36h-2.18v2.91h2.18ZM141.01,118.75c1.26,0,1.9-.57,1.9-1.72s-.63-1.73-1.9-1.73h-2.6v3.45h2.6Z"/>
  <path class="cls-2" d="M149.37,120.73c-.56,0-1.05-.1-1.46-.31-.41-.21-.73-.51-.95-.91-.22-.4-.33-.88-.33-1.44,0-.52.11-.95.33-1.31.22-.35.57-.64,1.03-.87.47-.22,1.07-.4,1.83-.52.52-.08.92-.18,1.19-.28.27-.1.46-.21.55-.34.1-.13.14-.29.14-.48,0-.28-.1-.49-.29-.64-.2-.15-.52-.22-.98-.22-.49,0-.95.11-1.39.33-.44.22-.82.5-1.14.86h-.16l-.92-1.39c.44-.49.99-.88,1.63-1.15.64-.28,1.34-.41,2.1-.41,1.16,0,2,.25,2.52.74.52.49.78,1.19.78,2.1v3.8c0,.39.17.59.52.59.13,0,.26-.02.39-.07l.11.03.16,1.53c-.12.08-.29.14-.51.19-.22.05-.45.08-.71.08-.52,0-.93-.1-1.23-.3-.29-.2-.5-.52-.63-.94l-.17-.02c-.43.91-1.23,1.36-2.4,1.36ZM150.06,119.09c.51,0,.91-.17,1.22-.51.3-.34.46-.82.46-1.43v-.89l-.15-.03c-.13.11-.31.19-.52.27-.21.07-.52.14-.92.21-.48.08-.82.22-1.03.41-.21.19-.31.47-.31.82,0,.38.11.66.33.86.22.2.53.29.93.29Z"/>
  <path class="cls-2" d="M156.44,120.56v-8.75h2.11v1.29l.17.04c.54-.99,1.43-1.49,2.65-1.49,1.01,0,1.75.28,2.23.83.47.55.71,1.35.71,2.4v5.69h-2.2v-5.42c0-.58-.12-1-.35-1.26-.23-.26-.61-.38-1.12-.38-.63,0-1.12.2-1.47.61-.35.41-.53,1.05-.53,1.92v4.53h-2.2Z"/>
  <path class="cls-2" d="M166.7,120.56v-12.27h2.2v6.81h.21l2.53-3.29h2.23v.18l-2.98,3.84,3.31,4.53v.2h-2.32l-2.78-3.69h-.21v3.69h-2.2Z"/>
</svg>