<?xml version="1.0" encoding="UTF-8"?>
<svg id="Layer_1" xmlns="http://www.w3.org/2000/svg" version="1.1" viewBox="0 0 160.85 50.46">
  <!-- Generator: Adobe Illustrator 29.5.1, SVG Export Plug-In . SVG Version: 2.1.0 Build 141)  -->
  <defs>
    <style>
      .st0 {
        fill: none;
        stroke: #373a3f;
        stroke-miterlimit: 41.36;
        stroke-width: .98px;
      }

      .st1 {
        fill: #373a3f;
      }

      .st2 {
        fill: #fff;
      }

      .st3 {
        fill: #ffaa01;
      }

      .st4 {
        fill: #f2a71e;
      }
    </style>
  </defs>
  <g>
    <path class="st4" d="M39.02,6.61c8.98,6.64,3.77,20.64-7.32,20.11-4.42-.21-8.63-3.44-9.97-7.64C18.39,8.63,30.19.08,39.01,6.61h.01Z"/>
    <path class="st2" d="M36.04,18.62l-6.44,6.27c-2.73-.67-5.12-2.88-6.23-5.44-2.4-5.55.71-11.87,6.51-13.41,4.79-1.27,9.73,1.24,11.59,5.78,0,.1-1.17,1.42-1.28,1.47-.15.06-.13-.05-.16-.12-.11-.22-.16-.52-.28-.77-2.54-5.47-9.6-6.66-13.55-1.96-2.98,3.54-2.2,8.93,1.54,11.59.35.25,1.21.88,1.59.67l5.16-5.13.14-.29h-6.42s-.14-.13-.14-.14v-1.66h9.8v8.13c-.51.46-1.17.76-1.81,1v-5.99h-.02Z"/>
  </g>
  <path class="st0" d="M4.55,29.69h150.99"/>
  <path class="st1" d="M52.3,23.48c-1.21,0-2.27-.28-3.19-.83-.92-.55-1.64-1.38-2.16-2.49-.52-1.11-.78-2.47-.78-4.08s.28-2.98.83-4.08c.55-1.11,1.32-1.94,2.31-2.49.98-.55,2.12-.83,3.41-.83,1.38,0,2.51.25,3.4.74.89.5,1.51,1.23,1.88,2.22l-1.1.65h-.25c-.37-.75-.88-1.28-1.52-1.61-.64-.32-1.44-.49-2.41-.49-3.16,0-4.73,1.96-4.73,5.88,0,2.04.4,3.53,1.19,4.47s1.91,1.41,3.34,1.41c1.31,0,2.29-.3,2.95-.9.65-.6.98-1.54.98-2.82v-1.27h-4.09v-1.36h5.74v7.67h-1.56v-1.93l-.21-.05c-.38.74-.91,1.29-1.59,1.65-.68.36-1.48.54-2.42.54h-.02Z"/>
  <path class="st1" d="M70.04,18.22h-7.46c.05,1.32.36,2.29.95,2.9.59.62,1.39.93,2.42.93.77,0,1.4-.14,1.87-.41.47-.28.84-.71,1.11-1.3h.21l1.04.62c-.31.79-.82,1.41-1.51,1.86s-1.6.67-2.72.67c-1.05,0-1.95-.21-2.71-.62-.75-.41-1.34-1.04-1.74-1.88-.41-.84-.61-1.88-.61-3.13s.21-2.27.64-3.12c.43-.85,1.02-1.48,1.76-1.89.74-.42,1.6-.62,2.55-.62,1.39,0,2.48.39,3.26,1.18.78.78,1.17,1.95,1.18,3.49,0,.6-.01,1.01-.04,1.22l-.21.12v-.02ZM68.7,16.88c-.03-1.15-.28-1.99-.77-2.52-.49-.52-1.18-.79-2.09-.79s-1.7.26-2.24.79-.87,1.37-.99,2.51h6.09Z"/>
  <path class="st1" d="M78.61,21.55l.51,1.15c-.26.26-.59.45-1.01.58-.42.13-.87.2-1.35.2-2.07,0-3.11-1.05-3.11-3.15v-6.6h-1.89v-1.32h1.89v-2.29l1.6-.27v2.56h3.49v1.32h-3.49v6.45c0,1.25.54,1.87,1.62,1.87.59,0,1.1-.16,1.53-.49h.21Z"/>
  <path class="st3" d="M82.69,23.28v-14.39h6.14c.89,0,1.64.14,2.25.42s1.08.68,1.39,1.19c.32.52.47,1.12.47,1.83,0,.64-.15,1.2-.46,1.68-.31.49-.75.88-1.33,1.17v.21c.91.24,1.6.67,2.1,1.29.49.62.74,1.39.74,2.29,0,1.38-.42,2.44-1.25,3.19s-2.06,1.12-3.7,1.12h-6.36.01ZM88.24,14.62c1.33,0,1.99-.6,1.99-1.79,0-.61-.16-1.06-.49-1.36-.33-.3-.83-.45-1.5-.45h-2.71v3.6h2.71ZM88.77,21.02c1.57,0,2.35-.71,2.35-2.14s-.78-2.15-2.35-2.15h-3.23v4.28h3.23Z"/>
  <path class="st3" d="M99.87,23.48c-1.22,0-2.12-.33-2.7-1-.58-.67-.87-1.62-.87-2.87v-7.19h2.73v6.85c0,.66.14,1.15.43,1.45.29.31.73.46,1.32.46.75,0,1.34-.25,1.76-.74.42-.5.63-1.27.63-2.34v-5.68h2.73v10.86h-2.62v-1.59l-.21-.05c-.35.62-.77,1.09-1.27,1.39s-1.14.46-1.92.46h-.01Z"/>
  <path class="st3" d="M113.78,23.48c-1.05,0-1.98-.22-2.79-.65-.81-.44-1.44-1.08-1.89-1.92-.45-.85-.68-1.86-.68-3.05s.23-2.21.68-3.06,1.08-1.49,1.88-1.92c.8-.44,1.72-.65,2.75-.65,2.29,0,3.76.83,4.4,2.49l-1.87,1.34h-.21c-.22-.51-.51-.89-.87-1.14s-.84-.37-1.45-.37c-.79,0-1.4.27-1.84.82-.44.54-.66,1.38-.66,2.51s.22,1.95.67,2.49c.45.55,1.07.82,1.88.82.59,0,1.09-.16,1.5-.48s.7-.78.88-1.37l.21-.02,1.94,1.06c-.28.92-.79,1.67-1.53,2.25s-1.74.87-3,.87v-.02Z"/>
  <path class="st3" d="M120.21,23.28v-15.22h2.73v8.44h.27l3.14-4.08h2.77v.23l-3.69,4.76,4.1,5.62v.25h-2.87l-3.44-4.58h-.27v4.58h-2.74Z"/>
  <path class="st3" d="M134.61,23.48c-.74,0-1.42-.09-2.04-.26-.62-.17-1.14-.41-1.58-.72-.44-.3-.76-.65-.97-1.05l1.52-1.63h.21c.36.49.79.85,1.28,1.09s1.03.36,1.6.36c.53,0,.93-.1,1.2-.29s.4-.46.4-.82c0-.28-.1-.51-.29-.69-.19-.19-.51-.33-.94-.44l-1.44-.34c-1.08-.26-1.86-.65-2.36-1.18s-.74-1.2-.74-2.01c0-.68.17-1.26.52-1.76.34-.5.83-.88,1.46-1.14s1.36-.39,2.19-.39c.98,0,1.79.14,2.43.42s1.14.66,1.51,1.13l-1.46,1.57h-.2c-.3-.34-.64-.59-1.02-.75s-.8-.24-1.26-.24c-1.08,0-1.61.33-1.61,1,0,.28.1.51.3.69s.55.32,1.06.43l1.34.3c1.1.24,1.91.62,2.42,1.14s.76,1.22.76,2.1c0,.69-.17,1.3-.51,1.82s-.83.93-1.48,1.22c-.64.29-1.41.43-2.29.43h-.01Z"/>
  <path class="st1" d="M9.37,45.62h-2.1v-11.6h3l2.94,8.53h.17l2.92-8.53h2.93v11.6h-2.18v-7.67l-.2-.03-2.68,7.7h-1.91l-2.68-7.7-.2.03v7.67h0Z"/>
  <path class="st1" d="M23.09,35.82c-.4,0-.72-.12-.97-.36s-.37-.55-.37-.93.12-.68.37-.92.57-.36.97-.36c.26,0,.5.06.71.17s.37.26.48.46c.11.19.17.41.17.66s-.06.47-.17.67c-.11.2-.27.35-.48.46s-.44.17-.71.17v-.02ZM22,45.62v-8.75h2.2v8.75h-2.2Z"/>
  <path class="st1" d="M30.55,45.79c-.85,0-1.6-.18-2.25-.53s-1.16-.87-1.52-1.55-.55-1.5-.55-2.46.18-1.79.55-2.47.87-1.2,1.52-1.55c.65-.35,1.38-.53,2.21-.53,1.85,0,3.03.67,3.55,2.01l-1.51,1.08h-.17c-.18-.41-.41-.72-.7-.92s-.68-.3-1.17-.3c-.64,0-1.13.22-1.48.66s-.53,1.11-.53,2.02.18,1.57.54,2.01.87.66,1.52.66c.48,0,.88-.13,1.21-.38.33-.26.57-.63.71-1.11l.17-.02,1.56.86c-.22.74-.63,1.35-1.23,1.81-.6.47-1.41.7-2.42.7h-.01Z"/>
  <path class="st1" d="M35.74,45.62v-8.75h2.13v1.3l.17.03c.21-.49.49-.84.83-1.07s.76-.34,1.25-.34.88.08,1.14.25l-.37,1.9-.17.03c-.14-.06-.28-.1-.41-.13s-.29-.04-.48-.04c-.61,0-1.08.22-1.4.65s-.48,1.12-.48,2.08v4.1h-2.21Z"/>
  <path class="st1" d="M46.43,45.79c-.86,0-1.61-.18-2.26-.53s-1.15-.87-1.51-1.55c-.36-.68-.54-1.5-.54-2.46s.18-1.79.54-2.47.86-1.2,1.51-1.55c.65-.35,1.4-.53,2.26-.53s1.61.18,2.26.53,1.15.87,1.51,1.55.54,1.51.54,2.47-.18,1.78-.54,2.46-.86,1.2-1.51,1.55c-.65.35-1.4.53-2.26.53ZM46.43,43.93c1.36,0,2.04-.89,2.04-2.67,0-.93-.17-1.6-.52-2.04-.35-.43-.85-.65-1.52-.65-1.36,0-2.04.89-2.04,2.68s.68,2.67,2.04,2.67h0Z"/>
  <path class="st1" d="M53.05,45.62v-7.02h-1.24v-1.75h1.24c-.09-.37-.13-.72-.13-1.04,0-.56.13-1.03.38-1.42s.62-.69,1.1-.9c.48-.21,1.04-.31,1.7-.31.97,0,1.69.17,2.17.5l-.52,1.62-.17.03c-.33-.23-.75-.35-1.26-.35-.4,0-.69.1-.89.29s-.3.46-.3.79c0,.14,0,.27.03.39.02.12.05.25.1.4h2.5v1.75h-2.5v7.02h-2.21Z"/>
  <path class="st1" d="M60.19,35.82c-.4,0-.72-.12-.97-.36s-.37-.55-.37-.93.12-.68.37-.92.57-.36.97-.36c.26,0,.5.06.71.17s.37.26.48.46c.11.19.17.41.17.66s-.06.47-.17.67-.27.35-.48.46c-.21.11-.44.17-.71.17v-.02ZM59.09,45.62v-8.75h2.2v8.75h-2.2Z"/>
  <path class="st1" d="M63.81,45.62v-8.75h2.11v1.29l.17.04c.54-.99,1.43-1.49,2.65-1.49,1.01,0,1.75.28,2.23.83.47.55.71,1.35.71,2.4v5.69h-2.2v-5.42c0-.58-.12-1-.35-1.26-.23-.26-.61-.38-1.12-.38-.63,0-1.12.2-1.47.61s-.53,1.05-.53,1.92v4.53h-2.2Z"/>
  <path class="st1" d="M76.21,45.79c-.56,0-1.05-.1-1.46-.31-.41-.21-.73-.51-.95-.91-.22-.4-.33-.88-.33-1.44,0-.52.11-.95.33-1.31.22-.35.57-.64,1.03-.87.47-.22,1.07-.4,1.83-.52.52-.08.92-.18,1.19-.28.27-.1.46-.21.55-.34.1-.13.14-.29.14-.48,0-.28-.1-.49-.29-.64-.2-.15-.52-.22-.98-.22-.49,0-.95.11-1.39.33s-.82.5-1.14.86h-.16l-.92-1.39c.44-.49.99-.88,1.63-1.15.64-.28,1.34-.41,2.1-.41,1.16,0,2,.25,2.52.74s.78,1.19.78,2.1v3.8c0,.39.17.59.52.59.13,0,.26-.02.39-.07l.11.03.16,1.53c-.12.08-.29.14-.51.19s-.45.08-.71.08c-.52,0-.93-.1-1.23-.3-.29-.2-.5-.52-.63-.94l-.17-.02c-.43.91-1.23,1.36-2.4,1.36h0ZM76.91,44.15c.51,0,.91-.17,1.22-.51.3-.34.46-.82.46-1.43v-.89l-.15-.03c-.13.11-.31.19-.52.27-.21.07-.52.14-.92.21-.48.08-.82.22-1.03.41s-.31.47-.31.82c0,.38.11.66.33.86s.53.29.93.29h-.01Z"/>
  <path class="st1" d="M83.29,45.62v-8.75h2.11v1.29l.17.04c.54-.99,1.43-1.49,2.65-1.49,1.01,0,1.75.28,2.23.83.47.55.71,1.35.71,2.4v5.69h-2.2v-5.42c0-.58-.12-1-.35-1.26-.23-.26-.61-.38-1.12-.38-.63,0-1.12.2-1.47.61s-.53,1.05-.53,1.92v4.53h-2.2Z"/>
  <path class="st1" d="M97.39,45.79c-.85,0-1.6-.18-2.25-.53s-1.16-.87-1.52-1.55c-.36-.68-.55-1.5-.55-2.46s.18-1.79.55-2.47.87-1.2,1.52-1.55c.65-.35,1.38-.53,2.21-.53,1.85,0,3.03.67,3.55,2.01l-1.51,1.08h-.17c-.18-.41-.41-.72-.7-.92-.29-.2-.68-.3-1.17-.3-.64,0-1.13.22-1.48.66-.35.44-.53,1.11-.53,2.02s.18,1.57.54,2.01.87.66,1.52.66c.48,0,.88-.13,1.21-.38.33-.26.57-.63.71-1.11l.17-.02,1.56.86c-.22.74-.63,1.35-1.23,1.81-.6.47-1.41.7-2.42.7h0Z"/>
  <path class="st1" d="M109.96,41.74h-5.63c.06.76.28,1.32.65,1.66.37.35.88.52,1.52.52.5,0,.91-.09,1.22-.28s.56-.47.75-.85h.17l1.46.94c-.29.61-.72,1.11-1.29,1.49-.58.38-1.35.57-2.31.57-.9,0-1.69-.17-2.34-.52-.66-.34-1.17-.86-1.52-1.54-.36-.68-.54-1.51-.54-2.49s.19-1.83.56-2.52c.38-.68.88-1.19,1.52-1.53s1.36-.5,2.16-.5c1.24,0,2.19.33,2.85.98.66.66.99,1.62.99,2.89,0,.46-.02.82-.05,1.07l-.17.1h0ZM108.07,40.32c-.02-.67-.18-1.15-.46-1.46-.29-.3-.71-.46-1.27-.46-1.11,0-1.76.64-1.96,1.91h3.69Z"/>
  <path class="st1" d="M116.16,45.62v-11.6h4.95c.71,0,1.32.11,1.81.34.49.23.87.55,1.12.96.25.42.38.91.38,1.47,0,.51-.12.97-.37,1.36s-.61.71-1.07.94v.17c.73.19,1.29.54,1.69,1.04.4.5.6,1.12.6,1.85,0,1.11-.33,1.97-1,2.57s-1.66.9-2.98.9h-5.13ZM120.64,38.65c1.07,0,1.6-.48,1.6-1.44,0-.49-.13-.86-.4-1.1-.26-.24-.67-.36-1.21-.36h-2.18v2.91h2.19ZM121.06,43.81c1.26,0,1.9-.57,1.9-1.72s-.63-1.73-1.9-1.73h-2.6v3.45s2.6,0,2.6,0Z"/>
  <path class="st1" d="M129.42,45.79c-.56,0-1.05-.1-1.46-.31s-.73-.51-.95-.91-.33-.88-.33-1.44c0-.52.11-.95.33-1.31.22-.35.57-.64,1.03-.87.47-.22,1.07-.4,1.83-.52.52-.08.92-.18,1.19-.28s.46-.21.55-.34c.1-.13.14-.29.14-.48,0-.28-.1-.49-.29-.64-.2-.15-.52-.22-.98-.22-.49,0-.95.11-1.39.33s-.82.5-1.14.86h-.16l-.92-1.39c.44-.49.99-.88,1.63-1.15.64-.28,1.34-.41,2.1-.41,1.16,0,2,.25,2.52.74s.78,1.19.78,2.1v3.8c0,.39.17.59.52.59.13,0,.26-.02.39-.07l.11.03.16,1.53c-.12.08-.29.14-.51.19s-.45.08-.71.08c-.52,0-.93-.1-1.23-.3-.29-.2-.5-.52-.63-.94l-.17-.02c-.43.91-1.23,1.36-2.4,1.36h-.01ZM130.11,44.15c.51,0,.91-.17,1.22-.51.3-.34.46-.82.46-1.43v-.89l-.15-.03c-.13.11-.31.19-.52.27-.21.07-.52.14-.92.21-.48.08-.82.22-1.03.41-.21.19-.31.47-.31.82,0,.38.11.66.33.86s.53.29.93.29h-.01Z"/>
  <path class="st1" d="M136.49,45.62v-8.75h2.11v1.29l.17.04c.54-.99,1.43-1.49,2.65-1.49,1.01,0,1.75.28,2.23.83.47.55.71,1.35.71,2.4v5.69h-2.2v-5.42c0-.58-.12-1-.35-1.26-.23-.26-.61-.38-1.12-.38-.63,0-1.12.2-1.47.61s-.53,1.05-.53,1.92v4.53h-2.2Z"/>
  <path class="st1" d="M146.75,45.62v-12.27h2.2v6.81h.21l2.53-3.29h2.23v.18l-2.98,3.84,3.31,4.53v.2h-2.32l-2.78-3.69h-.21v3.69h-2.2.01Z"/>
</svg>