<?xml version="1.0" encoding="UTF-8"?>
<svg id="Layer_1" data-name="Layer 1" xmlns="http://www.w3.org/2000/svg" viewBox="0 0 200 200">
  <path d="M147.35,61.03H52.65c-6.78,0-12.3,5.52-12.3,12.3v53.35c0,6.78,5.52,12.3,12.3,12.3h94.7c6.78,0,12.3-5.52,12.3-12.3v-53.35c0-6.78-5.52-12.3-12.3-12.3ZM155.64,73.33v20.01h-65.69l2.93-1.47c6.55-6.4-2.34-15.61-9.15-8.5-1.87,1.95-3.43,4.22-5.31,6.16v-24.5h68.93c4.57,0,8.29,3.72,8.29,8.29ZM86.75,90.06c-1.37.5-2.86,1-4.26,1.31.83-1.05,1.67-2.13,2.56-3.15.69-.8,2.51-3.08,3.44-3.24,1.81-.33,3.2,1.59,2.24,3.16-.44.72-3.08,1.6-3.98,1.92ZM44.36,74.32v-.99c0-4.57,3.72-8.29,8.29-8.29h21.58v24.5c-1.87-1.95-3.44-4.21-5.31-6.16-6.81-7.11-15.71,2.1-9.15,8.5l2.93,1.47h-18.33v-19.02ZM70.16,91.36c-1.53-.36-3.17-.88-4.66-1.44-.85-.32-3.15-1.08-3.58-1.79-1.15-1.89,1.1-4.09,2.99-2.86.45.29,1.48,1.54,1.91,2.02,1.17,1.3,2.24,2.71,3.34,4.06ZM44.36,126.67v-29.15h26.85l-7.14,7.22c-1.17,1.98.94,4.13,2.94,2.94l7.22-7.14v34.42h-21.58c-4.57,0-8.29-3.72-8.29-8.29ZM155.64,109.42v17.25c0,4.57-3.72,8.29-8.29,8.29h-68.93v-34.42l7.22,7.14c2,1.18,4.12-.93,2.94-2.94l-7.14-7.22h74.21v11.89Z"/>
</svg>