<?xml version="1.0" encoding="UTF-8"?>
<svg id="Layer_1" data-name="Layer 1" xmlns="http://www.w3.org/2000/svg" viewBox="0 0 200 200">
  <defs>
    <style>
      .cls-1 {
        fill: #ed1c24;
      }

      .cls-2 {
        fill: #2dba95;
      }

      .cls-3 {
        fill: #062549;
      }

      .cls-4 {
        fill: #8550a0;
      }

      .cls-5 {
        fill: #f0b60e;
      }
    </style>
  </defs>
  <path class="cls-3" d="M111.31,89.51c4.77.64,6.61,6.18,3.17,9.48l-1.64,1.04c5.61,1.29,5.78,8.86.46,10.88-.35.13-1.75.59-1.99.59h-10.66v-21.99c3.32.32,7.44-.43,10.66,0ZM109.67,93.95c-.77-.17-2.59,0-3.52,0-.17,0-.25.28-.26.48,0,.98.17,2.09.15,3.16s-.76,1.4.8,1.52c.93.07,3-.14,3.7-.71,1.3-1.06.84-4.08-.87-4.45ZM106.15,107.05c.73.18,2.82,0,3.75,0,.62,0,1.57-1.16,1.7-1.81.63-3.09-2.66-3.6-5-3.35-1.25.14-.58.66-.56,1.52.02,1.07-.15,2.18-.15,3.16,0,.21.05.43.26.48Z"/>
  <path class="cls-3" d="M151.04,101.67c1.06-.48,3.89-5.61,4.57-5.61h4.81l-5.16,7.13,5.39,8.31h-5.04c-1.64-2.17-2.77-4.79-4.57-6.78v6.78h-4.45v-23.39h4.1s.35.33.35.35v13.22Z"/>
  <path class="cls-3" d="M127.36,96.06h4.22v15.44h-3.52c-.14,0-.02-2.11-.58-1.87-1.84,2.3-5.89,3.5-8.1,1.06-.27-.3-.93-1.33-.93-1.65v-12.98h4.1s.35.33.35.35v10.53c0,.51,1.36,1.11,1.99,1.07s2.46-1.09,2.46-1.53v-10.41Z"/>
  <path class="cls-3" d="M83.77,111.5h-4.22v-10.18c0-.7-1.05-1.63-1.79-1.68-.63-.04-2.66.97-2.66,1.45v10.41h-4.45v-15.09c0-.48,3.2-.49,3.53-.25.39.28.08,1.6.57,2,1.62-2.18,5.86-3.42,7.97-1.4.26.25,1.06,1.49,1.06,1.75v12.98Z"/>
  <path class="cls-3" d="M88.92,96.06c.08.07.29,1.79.24,2.1.22.28,1.51-1.18,1.8-1.36,1.79-1.19,4.95-1.58,6.56.04.15.15,1.02,1.58,1.02,1.68v12.98h-4.45v-10.64c0-.15-.52-.79-.72-.92-1.33-.88-2.96.3-3.69,1.44-.24,3.21.1,6.45.09,9.65,0,.2-.09.48-.26.48h-4.1v-15.44c.53.09,3.36-.13,3.52,0Z"/>
  <path class="cls-3" d="M173.07,100.5c-1.36-.66-5.1-2.01-6.4-1.19-.37.24-.48,1.04-.28,1.42.26.5,3.92,1.47,4.87,1.94,5.37,2.7,3.04,8.83-2.5,9.3-1.27.11-6.12-.28-6.81-1.41-.52-.86.24-2.96.12-3.98,1.56,1.05,5.66,2.45,7.33,1.59.66-.34.85-.92.52-1.59-.71-1.44-7.39-1.54-8.03-5.32-1.11-6.56,7.72-6.31,11.6-4.17l-.41,3.41Z"/>
  <rect class="cls-3" x="63.37" y="89.51" width="5.39" height="21.99"/>
  <path class="cls-3" d="M144.24,106.82c.39,2.1,2.03,3.32-.54,4.49-3.96,1.81-9.22.34-10.55-4.07-1.42-4.71.13-10.93,5.8-11.43,1.37-.12,5.34.1,6.11,1.4.09.15-.92,3.23-1.19,3.28-2.62-1.83-6.27-1.46-6.68,2.22-.58,5.25,2.78,7.11,7.03,4.09Z"/>
  <path class="cls-3" d="M171.14,88.15c3.62-.6,4.16,4.7.86,5.09-3.25.38-4.03-4.57-.86-5.09ZM171.13,88.62c-2.55.56-1.8,4.75,1.07,4.12,2.45-.54,1.81-4.75-1.07-4.12Z"/>
  <path class="cls-3" d="M170.75,91.84v-2.32h1.03c.21,0,.36.02.47.06s.19.12.26.22c.06.11.1.22.1.35,0,.16-.05.3-.16.42-.11.11-.27.18-.49.22.08.04.14.08.18.12.09.08.17.19.25.31l.4.63h-.39l-.31-.48c-.09-.14-.16-.25-.22-.32-.06-.07-.11-.13-.16-.15-.05-.03-.09-.05-.14-.06-.03,0-.09-.01-.17-.01h-.36v1.03h-.31ZM171.06,90.55h.66c.14,0,.25-.01.33-.04s.14-.08.18-.14.06-.13.06-.21c0-.11-.04-.2-.12-.27-.08-.07-.21-.11-.38-.11h-.73v.77Z"/>
  <circle class="cls-5" cx="33.39" cy="91.74" r="7.67"/>
  <circle class="cls-4" cx="50" cy="91.74" r="7.67"/>
  <circle class="cls-2" cx="33.39" cy="108.26" r="7.67"/>
  <circle class="cls-1" cx="50" cy="108.26" r="7.67"/>
</svg>