<?xml version="1.0" encoding="UTF-8"?>
<svg id="Layer_1" data-name="Layer 1" xmlns="http://www.w3.org/2000/svg" viewBox="0 0 200 200">
  <path d="M111.45,143.43c-.67,0-1.33-.03-2-.08v5.47c-.27,2.92-2.21,4.86-5.13,5.13h-45.58c-2.8-.4-4.63-2.3-4.89-5.13V50.85c.14-2.47,1.98-4.67,4.45-5.06,1.02-.16,6.6-.24,7.4,0,.94.28.55,1.35.74,2.02.38,1.39,1.39,2.21,2.81,2.44l25.28-.02c1.27-.29,2.23-1.17,2.59-2.42.28-.96-.38-1.88,1.17-2.08,1.39-.18,5.54-.13,6.91.13,2.43.46,4.09,2.6,4.26,5v36.73c1.15-.09,2.53-.12,4-.02v-36.94c-.49-4.65-3.74-7.99-8.26-8.89h-47.07c-4.28.55-7.99,4.6-8.26,8.89l-.02,97.95c.36,5.19,3.75,8.73,8.9,9.37,14.79-.77,30.66,1.04,45.32.02,5.38-.38,9.01-4.01,9.39-9.38v-5.23c-.67.05-1.34.08-2.01.08Z"/>
  <path d="M150.16,98.55c-.25-8.34-5.86-16.45-13.44-19.79-2.35-1.04-7.02-2.35-9.53-2.02-2.98.39-2.74,4.21-.58,4.68,1.3.29,3.05.18,4.49.48,8.31,1.7,13.19,8.35,14.28,16.46.19,1.38-.17,3.14,1.86,3.49,2.27.39,2.98-1.38,2.92-3.31Z"/>
  <path d="M128.11,86.42c-4.05-.13-3.9,4.21-1.3,4.74,2.44.49,3.56.09,5.76,1.87,2.62,2.11,2.58,3.84,3.12,6.81.34,1.89,2.68,2.82,4.09,1.41,1.5-1.5.18-5.79-.66-7.51-1.95-4.01-6.49-7.18-11.01-7.32Z"/>
  <path d="M115.12,114.11c-1.91-.67-7.79-1.44-8.42-3.43-1.09-3.43,6.59-3.68,8.88-2,.92.67.76,1.22,1.26,1.98,1.45,2.22,4.78.93,4.44-1.56-.46-3.34-4.31-5.63-7.39-6.08.03-2.02.25-5.24-2.6-5.15-2.77.08-2.15,3.25-2.21,5.15-8.36,1.27-10.2,10.72-1.75,13.91,1.98.75,8.48,1.61,9.13,3.66.37,1.17-.45,1.66-1.38,2.08-2.34,1.06-7.27.87-8.67-1.59-.25-.44-.29-.94-.56-1.35-1.38-2.06-4.73-.88-4.31,1.82.52,3.38,4.44,5.72,7.53,6.32.1,1.82-.57,4.89,2.03,5.14,2.97.28,2.88-3.08,2.77-5.16,9.14-1.18,10.31-10.57,1.24-13.75Z"/>
  <path d="M113.9,90.41h0c-2.49-.26-4.84-.01-6.13.18-.23.03-.46.07-.68.11,0,0-.01,0-.02,0-9.89,1.81-18.25,9.62-20.23,19.59-2.96,14.89,7.28,28.54,22.23,30.2h0c1.32.14,3.08.2,5.08-.03.5-.06,1-.13,1.49-.23.06-.01.12-.02.18-.03,9.26-1.78,17.2-8.69,19.72-17.87,4.19-15.28-6.13-30.08-21.64-31.91ZM127.43,127.96c-9.02,11.76-27.64,9.8-34.21-3.4-6.18-12.41,1.96-27.99,15.84-29.29,18.01-1.68,29.4,18.29,18.37,32.69Z"/>
</svg>