<?xml version="1.0" encoding="UTF-8"?>
<svg id="Layer_1" data-name="Layer 1" xmlns="http://www.w3.org/2000/svg" viewBox="0 0 200 200">
  <defs>
    <style>
      .cls-1 {
        fill: #010101;
      }

      .cls-2 {
        fill: #f08932;
      }
    </style>
  </defs>
  <path class="cls-1" d="M136.16,61.32l-10.42,36.69-.02.63c.83-.14,1.64-.43,2.49-.52.18-.02,1.16-.18.78.26-10.64,5.87-22.88,8.26-34.81,10.1-4.32.66-8.7,1.54-12.92.02-8.51-3.07-1.87-8.15,2.94-10.38.29.27-1.53,1.92-1.78,2.26-.71.97-1.92,2.83-1.01,3.93.65.78,4.71,1.39,5.8,1.4.75,0,4.74-.52,5.2-.82.81-.54,3.63-12.77,4.33-14.59l-16.97,6.78-2.05-16.26.38-.41c11.68-4.25,22.17-10.7,31.32-19.07h26.77Z"/>
  <path class="cls-1" d="M24.64,138.55l7.09-26.32h7.5c.63,1.04,3.04,9.88,3.56,9.88.39,0,.55-.28.78-.52,2.87-3.04,5.38-6.44,8.35-9.4h8.23l-7.05,26.35h-7.57l3.91-14.48-9.52,9.53-3.92-9.66-4.05,14.61h-7.31Z"/>
  <path class="cls-2" d="M61.73,120.81c-.2-.17.97-1.6,1.17-1.83,4.24-5.01,11.24-7.4,17.73-6.75,13.85,1.39,10.6,16.77,1.97,22.78-8.04,5.6-25.12,6.02-23.75-7.55.22-2.22.92-4.23,3.22-4.87l4.62-1.78h-4.96ZM75.24,119.05c-6.14,1.05-9.67,14.59-1.48,12.87,5.86-1.23,9.38-14.22,1.48-12.87Z"/>
  <polygon class="cls-2" points="121.53 112.46 113.97 138.17 106.11 138.17 100.51 124.2 96.2 138.29 88.63 138.29 95.95 112.73 103.79 112.84 109.78 126.55 113.7 112.46 121.53 112.46"/>
  <path class="cls-2" d="M145.56,112.46l-1.58,6.25h-13.93c-.23.06-1.09,3.39-.94,3.93h12.28l-1.33,5.71h-12.61s-1.2,3.94-1.2,3.94h13.45s.64.27.65.42l-1.57,5.85h-21.42l7.18-26.09h21.02Z"/>
  <path class="cls-1" d="M155.62,112.2l2.88,9.66,8.09-9.66h8.75c.11.45-.19.52-.39.78-4.27,5.55-10,10.62-14.35,16.19l-2.5,9.37h-7.57l2.62-10.3-5.24-16.06h7.7Z"/>
  <path class="cls-1" d="M112.39,106.72l6.92-2.08c5.59-2.08,11.13-4.26,15.99-7.77,2.56-1.85,6.86-4.82,3.73-8.14,2.36-.2,4.08,2.68,3.92,4.82-.3,4.03-6.74,7.32-10.02,8.79-6.28,2.83-13.67,4.14-20.55,4.39Z"/>
</svg>