<?xml version="1.0" encoding="UTF-8"?>
<svg id="Layer_1" data-name="Layer 1" xmlns="http://www.w3.org/2000/svg" viewBox="0 0 200 200">
  <defs>
    <style>
      .cls-1 {
        fill: #225e63;
      }

      .cls-2 {
        fill: #2bbc5d;
      }

      .cls-3 {
        fill: #fefefe;
      }
    </style>
  </defs>
  <path class="cls-1" d="M129.43,104.19l1.61.48c-.11.46-.27.83-.51,1.13s-.51.54-.86.67c-.35.16-.78.24-1.32.24-.64,0-1.15-.08-1.58-.27-.4-.19-.75-.51-1.05-.99-.3-.46-.46-1.07-.46-1.8,0-.97.27-1.72.78-2.25.51-.54,1.26-.78,2.2-.78.75,0,1.32.16,1.74.46.43.3.75.75.94,1.4l-1.61.35c-.05-.19-.11-.32-.19-.4-.11-.13-.21-.24-.38-.32-.16-.08-.32-.11-.48-.11-.4,0-.72.16-.94.51-.16.24-.24.64-.24,1.15,0,.64.11,1.1.3,1.34s.48.38.83.38.62-.11.78-.3c.21-.24.35-.51.43-.89Z"/>
  <path class="cls-1" d="M131.68,103.65c0-.97.27-1.72.81-2.25.54-.54,1.29-.81,2.25-.81s1.74.27,2.28.78c.54.54.81,1.26.81,2.23,0,.7-.11,1.26-.35,1.69-.24.43-.56.78-1.02,1.02-.43.24-.99.38-1.64.38s-1.21-.11-1.66-.32c-.43-.21-.78-.54-1.07-1.02s-.4-.99-.4-1.69ZM133.51,103.65c0,.59.11,1.02.32,1.29.21.27.51.4.91.4s.7-.13.91-.38c.21-.27.32-.72.32-1.37,0-.56-.11-.97-.35-1.21-.21-.27-.54-.38-.91-.38s-.67.13-.89.4c-.21.21-.32.64-.32,1.23Z"/>
  <path class="cls-1" d="M138.77,100.7h2.39l.91,3.6.91-3.6h2.39v5.9h-1.5v-4.51l-1.15,4.51h-1.34l-1.15-4.51v4.51h-1.5v-5.9h.05Z"/>
  <path class="cls-1" d="M146.55,100.7h3.03c.67,0,1.15.16,1.48.48.32.32.48.75.48,1.34s-.19,1.07-.54,1.4c-.35.35-.91.51-1.64.51h-.99v2.2h-1.83v-5.93h0ZM148.38,103.22h.46c.35,0,.59-.05.75-.19.13-.13.21-.27.21-.46s-.05-.35-.19-.48-.35-.19-.7-.19h-.51v1.32h-.03Z"/>
  <path class="cls-1" d="M152.51,100.7h1.83v4.46h2.84v1.45h-4.67v-5.9h0Z"/>
  <path class="cls-1" d="M158.09,100.7h1.83v5.9h-1.83v-5.9Z"/>
  <path class="cls-1" d="M164.85,105.61h-2.07l-.3.97h-1.85l2.23-5.9h1.99l2.23,5.9h-1.91l-.32-.97ZM164.48,104.35l-.64-2.12-.64,2.12h1.29Z"/>
  <path class="cls-1" d="M167.65,100.7h1.69l2.23,3.27v-3.27h1.72v5.9h-1.72l-2.2-3.25v3.25h-1.72v-5.9h0Z"/>
  <path class="cls-1" d="M174.09,100.7h5.56v1.45h-1.85v4.46h-1.83v-4.46h-1.85v-1.45h-.03Z"/>
  <path id="Rectangle-3" class="cls-1" d="M107.47,109.69l5.29-1.66-1.72-3.81c-1.26,1.58-2.52,3.62-3.57,5.48ZM105.68,92.27l-10.36-23.08-75.85,4.29,21.01,57.33,40.45-12.75c-2.58-3.7-3.52-8.11-.54-10.25,3.33-2.42,8.35.38,11.54,4.32,3.09-5.15,11.76-17.15,13.74-19.86Z"/>
  <path id="Oval-1" class="cls-3" d="M92.95,85.87c3.17,0,5.74-2.42,5.74-5.42s-2.58-5.42-5.74-5.42-5.74,2.42-5.74,5.42c0,2.98,2.58,5.42,5.74,5.42ZM88.26,88.2h9.39v24.56h-9.39v-24.56Z"/>
  <path id="Path-3" class="cls-3" d="M83.61,95.37c.08.03.13,0,.13-.08v-6.23c0-.08-.05-.16-.13-.21,0,0-1.23-.81-4.99-1.02-.19-.11-3.49-.13-4.37,0-13.69,1.1-14.2,11-14.2,11.43v2.42c0,.3,0,10.41,14.2,11.3,1.4.11,4.11,0,4.37,0,3.27,0,5.53-.99,5.53-.99.08-.03.13-.11.13-.19v-5.82c0-.08-.05-.11-.11-.05,0,0-1.02.81-5.48,1.26-1.26.13-1.88.08-2.33,0-6.33-1.07-6.63-5.69-6.63-5.69,0-.08-.03-.21-.03-.27v-1.77c0-.08,0-.21.03-.27,0,0,.43-4.97,6.63-5.5h2.33c2.71.35,4.91,1.69,4.91,1.69Z"/>
  <path id="Path-1" class="cls-3" d="M33.96,112.68c0,.08.05.13.13.13h9.15c.08,0,.13-.05.13-.13v-7.14c0-.08.05-.13.13-.13,0,0,14.63,1.05,14.63-8.75,0-7.76-9.18-8.59-12.18-8.45h-11.86c-.08,0-.13.05-.13.13v24.34ZM43.22,99.96v-6.41h2.25s3.25.13,3.52,2.36c.05.16.05,1.26,0,1.32-.43,2.6-3.25,2.74-3.25,2.74h-2.52Z"/>
  <path id="Path-7" class="cls-2" d="M93.22,124.61c.75,0,1.34,0,2.31-.43,3.33-1.74,14.57-29.2,26.44-37.65.08-.05.16-.13.21-.21.08-.11.08-.21.08-.21,0,0,0-.56-1.74-.56-10.55-.3-21.52,21.85-27.29,30.6-.08.11-.46,0-.46,0,0,0-3.86-4.56-7.22-6.31-.08-.03-.46-.16-.86-.13-.27,0-1.83.32-2.55,1.07-.86.91-.83,1.42-.83,2.52,0,.08.05.46.16.64.83,1.45,4.56,6.6,7.65,9.45.46.35,1.18,1.23,4.11,1.23Z"/>
  <path class="cls-1" d="M125.08,78.23h8.78c1.74,0,3.14.24,4.19.7,1.07.48,1.96,1.15,2.63,2.01.7.89,1.21,1.91,1.5,3.06.32,1.15.48,2.39.48,3.7,0,2.04-.24,3.62-.7,4.75s-1.1,2.07-1.93,2.84c-.83.75-1.72,1.26-2.66,1.53-1.29.35-2.47.51-3.52.51h-8.78v-19.11h0ZM130.98,82.56v10.44h1.45c1.23,0,2.12-.13,2.63-.4.51-.27.94-.75,1.23-1.42s.46-1.8.46-3.33c0-2.04-.32-3.41-.99-4.16-.67-.75-1.74-1.13-3.3-1.13h-1.48Z"/>
  <path class="cls-1" d="M144.3,91.04l5.64-.35c.13.91.38,1.61.75,2.09.62.78,1.48,1.15,2.6,1.15.83,0,1.5-.19,1.96-.59s.7-.86.7-1.37c0-.48-.21-.94-.64-1.34-.43-.4-1.45-.75-3.03-1.1-2.6-.59-4.43-1.37-5.56-2.33-1.13-.97-1.66-2.2-1.66-3.7,0-.99.3-1.91.86-2.79.56-.89,1.42-1.56,2.58-2.07,1.15-.51,2.71-.75,4.7-.75,2.44,0,4.32.46,5.58,1.37,1.29.91,2.04,2.36,2.28,4.35l-5.58.32c-.16-.86-.46-1.48-.94-1.88-.48-.4-1.13-.59-1.96-.59-.7,0-1.21.13-1.56.43s-.51.64-.51,1.07c0,.3.13.59.43.83.27.24.94.48,1.99.7,2.58.56,4.43,1.13,5.56,1.69,1.13.56,1.93,1.29,2.44,2.12.51.83.75,1.8.75,2.84,0,1.23-.35,2.36-1.02,3.38-.67,1.05-1.64,1.83-2.84,2.36-1.21.54-2.76.81-4.62.81-3.25,0-5.5-.62-6.76-1.88-1.23-1.26-1.93-2.84-2.12-4.78Z"/>
  <path class="cls-1" d="M163.16,91.04l5.64-.35c.13.91.38,1.61.75,2.09.62.78,1.48,1.15,2.6,1.15.83,0,1.5-.19,1.96-.59s.7-.86.7-1.37c0-.48-.21-.94-.64-1.34-.43-.4-1.45-.75-3.03-1.1-2.6-.59-4.43-1.37-5.56-2.33-1.1-.97-1.66-2.2-1.66-3.7,0-.99.3-1.91.86-2.79.56-.89,1.42-1.56,2.58-2.07s2.71-.75,4.7-.75c2.44,0,4.32.46,5.58,1.37,1.29.91,2.04,2.36,2.28,4.35l-5.58.32c-.16-.86-.46-1.48-.94-1.88-.48-.4-1.13-.59-1.96-.59-.7,0-1.21.13-1.56.43-.35.3-.51.64-.51,1.07,0,.3.13.59.43.83.27.24.94.48,1.99.7,2.58.56,4.43,1.13,5.56,1.69,1.13.56,1.93,1.29,2.44,2.12.51.83.75,1.8.75,2.84,0,1.23-.35,2.36-1.02,3.38-.67,1.05-1.64,1.83-2.84,2.36-1.21.54-2.76.81-4.62.81-3.25,0-5.5-.62-6.76-1.88-1.26-1.26-1.96-2.84-2.12-4.78Z"/>
</svg>