<?xml version="1.0" encoding="UTF-8"?>
<svg id="Layer_1" xmlns="http://www.w3.org/2000/svg" version="1.1" viewBox="0 0 147 37.98">
  <!-- Generator: Adobe Illustrator 29.5.1, SVG Export Plug-In . SVG Version: 2.1.0 Build 141)  -->
  <defs>
    <style>
      .st0 {
        fill: #b71f34;
      }
    </style>
  </defs>
  <path d="M133.28,3.72l.31.37-1.99,10.86c.79.21.77-.48,1.14-.76,2.78-2.08,7.47-2.9,9.62.46,2.21,3.45-.69,11.63-1.48,15.53-.18.88.05,2.01-.62,2.75h-5.4c-.1,0-.38-.35-.33-.54.66-3.33,1.67-6.86,2.18-10.2.25-1.6.87-5.04-1.63-5.21-2.2-.15-3.71,2.35-4.42,4.11-1.37,3.42-1.5,7.62-2.26,11.22-.04.18-.42.62-.51.62h-5.51l5.74-29.22h5.17-.01Z"/>
  <path d="M99.08,32.49c-.65-.2-.24-1.95-.22-2.47.01-.31.2-.39-.23-.67-1.42,1.63-3.37,3.37-5.63,3.59-7.27.7-8.16-7.7-5.84-12.8,3.06-6.73,11.25-9.15,18.07-7.5.59.14,1.53.21,1.62.87-.98,6.13-2.88,12.15-2.71,18.43l-.34.56h-4.72,0ZM100.04,16.81c-3.8-1.17-7.3,3.23-7.76,6.63-.33,2.4.12,5.46,3.28,4.62,2.3-.61,3.18-3.69,3.71-5.73.3-1.13.95-3.79.98-4.84,0-.25-.04-.48-.2-.68h-.01Z"/>
  <path class="st0" d="M60.22,12.33c4.74-.53,9.61,1.65,10.15,6.82.2,1.87.21,2.84-1.2,4.14-2.6,2.39-7.17,1.42-10.37,1.78-1.37.16-.41,1.49.27,2,1.48,1.13,5.13,1.01,6.92.68,1.55-.29,3.5-1.9,3.24.75-.45,4.67-7.03,4.89-10.53,4.12-10.75-2.36-9.43-19.05,1.53-20.29h0ZM60.67,17.26c-1.89.27-4.15,3.26-1.87,3.56.87.12,4.68-.12,5.18-.69,1.55-1.79-1.67-3.1-3.31-2.87Z"/>
  <path class="st0" d="M26.75,25.08c-.18,1.41,1.34,2.48,2.6,2.68,1.25.2,3.67.2,4.94.01.6-.09,3.06-.93,3.26-.8.54.33.33,1.7.2,2.24-.84,3.45-6.14,4.03-9.06,3.71-11.55-1.29-11.42-18-1.08-20.36,3.94-.9,8.75.27,10.59,4.12,2.8,5.88-.84,8.19-6.37,8.4-1.78.07-3.33-.45-5.07,0h0ZM26.86,20.8h3.6c.53,0,2.14-.44,2.32-1.06,1.15-3.8-7.97-2.92-5.92,1.06Z"/>
  <path class="st0" d="M19.02,17.13c-1.48,1.51-4.4.6-4.89,1.35-.21.32.03,3.26.03,4.01,0,1.34-.55,2.18.1,3.7,1.17,2.71,5.34-.65,5.3,2.12-.05,3.02-1.42,4.21-4.4,4.39-4.57.28-7.38-2.13-7.76-6.63-.21-2.55-.34-11.98.34-14.04.64-1.97,3.21-3.79,5.24-4,2.46-.26.13,3.8,1.26,4.7,1.06.81,4.9-.64,5.42.43.43.87.09,3.23-.64,3.97Z"/>
  <path class="st0" d="M40.3,6.25c.51-.51,3.21-.1,3.96.1,2.48.65,2.61,2.67,2.75,4.89.24,3.79-.02,8.07,0,11.93,0,1.15-.55,3.07.95,3.75.96.44,3.15.09,3.31.96.88,4.68-3.63,5.62-7.2,4.27-2.46-.94-3.64-3.06-3.84-5.61-.43-5.52.1-11.92.02-17.55-.01-.74-.58-2.12.04-2.75h.01Z"/>
  <path d="M78.34,27.25c1.07,1.06,3.12,1.1,4.52.96.68-.07,1.4-.76,2.06-.23s-.16,2.99.06,3.92c-.37,1.08-5.52,1.15-6.6,1.04-3.68-.35-6.89-3.11-7.29-6.88-1-9.51,7.76-15.73,16.62-13.24.79.68-.77,3.4-1.12,4.28-1.54.14-2.84-.35-4.46.04-3.9.94-6.81,7.11-3.79,10.11Z"/>
  <path d="M104.85,28.25l3.91-1.6c-.03,2.02,4.38,2.26,5.8,1.97.89-.18,2.07-1.31,2.31-2.19.75-2.84-2.06-4.45-1.92-7.2.74-.15.97.55,1.5.86,3.07,1.81,5.35,1.96,5.39,6.26.06,6.43-8.03,7.29-12.84,6.13-.58-.14-1.3-.65-1.84-.66s-.85.5-1.08.45c-.52-.11-1.48-3.59-1.22-4.01h-.01Z"/>
  <path class="st0" d="M120.57,18.11c.22-1.36-1.08-1.49-2.14-1.57-1.84-.13-4.03.21-4.47,2.27-.61,2.86,2.24,3.86,1.66,6.71l-4.83-2.7c-4.36-4.8-.14-9.94,5.42-10.53,2.55-.27,4.72.5,7.17.63.34,1.05,1.46,2.51.9,3.62-.16.32-3.46,1.83-3.71,1.57h0Z"/>
</svg>